<?xml version="1.0" standalone="no"?>
<!DOCTYPE svg PUBLIC "-//W3C//DTD SVG 20010904//EN"
 "http://www.w3.org/TR/2001/REC-SVG-20010904/DTD/svg10.dtd">
<svg version="1.0" xmlns="http://www.w3.org/2000/svg"
 width="190.000000pt" height="190.000000pt" viewBox="0 0 190.000000 190.000000"
 preserveAspectRatio="xMidYMid meet">
<metadata>
Created by potrace 1.11, written by Peter Selinger 2001-2013
</metadata>
<g transform="translate(0.000000,190.000000) scale(0.100000,-0.100000)"
fill="#000000" stroke="none">
<path d="M2 1875 c0 -16 2 -22 5 -12 2 9 2 23 0 30 -3 6 -5 -1 -5 -18z"/>
<path d="M20 1818 c0 -57 -3 -78 -10 -68 -7 10 -10 -19 -10 -92 0 -66 4 -108
10 -108 6 0 10 -9 10 -20 0 -11 -5 -20 -10 -20 -7 0 -10 -248 -9 -755 l1 -755
729 0 729 0 30 32 c17 18 33 43 36 56 4 13 17 28 30 32 19 8 24 17 24 45 0 19
-4 35 -10 35 -5 0 -10 -11 -10 -25 0 -14 -3 -24 -7 -23 -13 2 -47 -14 -83 -42
-30 -23 -121 -70 -135 -70 -7 0 12 47 60 145 58 117 68 191 35 238 l-23 32 32
-30 c20 -19 34 -43 37 -67 7 -40 39 -91 74 -115 11 -8 18 -19 15 -24 -3 -5 0
-6 7 -4 14 6 43 -13 126 -84 28 -24 49 -47 47 -52 -11 -16 76 -74 116 -77 l40
-4 -2 256 c0 153 -4 254 -10 250 -5 -3 -9 -11 -9 -17 0 -7 -9 -23 -20 -37
l-19 -25 6 25 c3 14 10 31 16 37 5 7 6 20 3 29 -5 13 -2 15 14 11 20 -5 20 -1
20 685 0 651 -1 689 -18 686 -9 -2 -17 -8 -17 -15 0 -6 -3 -15 -7 -19 -5 -4
-8 2 -8 14 0 18 -6 22 -30 22 -34 0 -37 -10 -18 -73 11 -35 10 -41 -6 -53 -11
-7 -24 -15 -30 -17 -8 -3 -7 -8 2 -19 10 -13 8 -17 -17 -28 -16 -6 -46 -15
-66 -20 -30 -7 -38 -5 -47 10 -13 20 -32 16 -62 -12 -19 -18 -20 -17 -30 14
-9 27 -19 36 -53 46 -44 14 -59 42 -23 42 21 0 27 15 10 25 -8 5 -8 11 0 20 8
10 8 15 0 20 -8 5 -2 14 16 25 27 18 26 19 -133 19 l-160 1 -12 -26 c-9 -20
-9 -30 0 -40 10 -12 9 -13 -5 -8 -9 4 -16 14 -15 23 3 32 -1 51 -12 51 -6 0
-8 -9 -4 -20 4 -12 2 -20 -5 -20 -6 0 -20 9 -32 20 -17 16 -36 20 -91 20 -74
0 -85 -13 -34 -38 27 -13 56 -52 38 -52 -5 0 -12 6 -14 13 -4 9 -8 8 -16 -3
-8 -12 -11 -11 -17 5 -10 29 -55 75 -73 75 -8 0 -11 -3 -8 -7 4 -3 -1 -12 -10
-18 -15 -11 -15 -17 -5 -41 l13 -29 -25 30 c-15 17 -23 37 -20 48 5 16 -5 17
-121 17 -109 0 -126 -2 -121 -15 3 -8 3 -21 0 -29 -7 -18 -49 -15 -50 4 -1 8
-2 21 -3 28 -2 22 -39 13 -44 -10 l-4 -23 -2 23 c-1 18 -7 22 -36 22 -34 0
-46 -12 -25 -25 18 -11 11 -23 -16 -28 -24 -4 -26 -2 -20 24 l6 29 -143 0
-143 0 1 -80 c0 -45 -3 -86 -7 -93 -4 -7 -8 30 -8 81 l0 92 -50 0 -50 0 0 -82z
m750 63 c0 -5 -7 -12 -16 -15 -14 -5 -15 -4 -4 9 14 17 20 19 20 6z m-70 -20
c0 -6 -4 -13 -10 -16 -5 -3 -10 1 -10 9 0 9 5 16 10 16 6 0 10 -4 10 -9z
m-432 -13 c19 -19 13 -52 -13 -71 l-25 -18 0 30 c0 16 4 32 10 36 5 3 7 12 3
20 -6 18 8 20 25 3z m470 -13 c-3 -3 -9 2 -12 12 -6 14 -5 15 5 6 7 -7 10 -15
7 -18z m411 -2 c1 -1 0 -7 -4 -13 -5 -8 -13 -6 -26 6 -22 20 -14 40 9 22 10
-7 19 -13 21 -15z m266 17 c3 -5 1 -10 -4 -10 -6 0 -11 5 -11 10 0 6 2 10 4
10 3 0 8 -4 11 -10z m-1229 -40 c13 0 24 -5 24 -11 0 -6 -7 -8 -16 -5 -9 3
-22 6 -30 6 -8 0 -14 8 -13 18 0 10 3 12 6 5 2 -7 16 -13 29 -13z m1051 -2
c-3 -8 -6 -5 -6 6 -1 11 2 17 5 13 3 -3 4 -12 1 -19z m46 2 c-3 -11 -7 -20 -9
-20 -2 0 -4 9 -4 20 0 11 4 20 9 20 5 0 7 -9 4 -20z m107 0 c0 -11 -7 -20 -15
-20 -18 0 -19 12 -3 28 16 16 18 15 18 -8z m40 6 c0 -3 -4 -8 -10 -11 -5 -3
-10 -1 -10 4 0 6 5 11 10 11 6 0 10 -2 10 -4z m-942 -13 c-1 -5 2 -22 6 -40 4
-19 3 -39 -3 -50 -9 -15 -10 -13 -5 9 7 33 -17 48 -47 29 -17 -10 -19 -8 -19
13 0 14 8 30 18 35 20 12 53 14 50 4z m617 -3 c3 -5 2 -10 -4 -10 -5 0 -13 5
-16 10 -3 6 -2 10 4 10 5 0 13 -4 16 -10z m75 -20 c29 -23 46 -25 54 -7 3 6 4
1 3 -13 -2 -20 -7 -25 -27 -23 -42 2 -136 21 -115 22 17 1 18 3 5 11 -12 8
-11 10 7 10 12 0 25 5 28 10 9 14 16 12 45 -10z m-512 -20 c12 -16 22 -32 22
-35 0 -11 -51 28 -61 46 -16 32 14 23 39 -11z m-258 10 c0 -5 -2 -10 -4 -10
-3 0 -8 5 -11 10 -3 6 -1 10 4 10 6 0 11 -4 11 -10z m997 -4 c-7 -17 28 -51
42 -41 6 3 11 2 11 -4 0 -22 -19 -19 -45 9 -15 16 -33 27 -38 23 -6 -3 -7 -1
-3 6 4 6 12 9 17 6 5 -4 9 -1 9 4 0 6 3 11 6 11 3 0 4 -6 1 -14z m-1054 -23
c-7 -3 -13 -13 -13 -24 0 -10 -7 -19 -15 -19 -13 0 -12 5 2 35 12 26 20 32 27
24 8 -8 7 -13 -1 -16z m1043 -97 c7 -19 7 -19 -19 0 -27 20 -34 34 -17 34 6 0
9 3 9 8 -4 26 4 32 11 7 4 -16 11 -39 16 -49z m406 52 c-18 -5 -32 -14 -32
-21 0 -7 -9 -18 -20 -25 -11 -7 -20 -17 -20 -23 0 -5 5 -7 10 -4 6 3 10 -2 10
-12 0 -11 5 -24 10 -29 8 -8 6 -15 -6 -25 -16 -12 -17 -12 -12 2 9 24 -20 63
-36 49 -10 -7 -21 -2 -45 20 -19 19 -26 32 -19 34 7 2 49 15 93 28 44 14 84
23 90 20 5 -3 -5 -10 -23 -14z m-382 -23 c5 3 14 -4 20 -15 6 -11 25 -26 43
-33 l31 -13 -52 0 c-42 0 -52 3 -52 17 0 9 -2 29 -4 45 -2 16 -1 21 1 11 2 -9
8 -15 13 -12z m-1094 0 c16 -12 16 -14 3 -15 -9 0 -22 7 -29 15 -16 19 0 19
26 0z m1002 -10 c-3 -3 -9 2 -12 12 -6 14 -5 15 5 6 7 -7 10 -15 7 -18z
m-1102 -30 c-7 -29 1 -33 19 -9 9 14 16 14 33 5 18 -9 22 -21 22 -56 0 -43 0
-44 -37 -47 -21 -2 -48 3 -59 10 l-21 13 20 54 c20 57 34 74 23 30z m1582 6
c-6 -10 -18 -17 -26 -13 -11 4 -8 8 9 18 31 17 31 17 17 -5z m-1308 -22 c-5
-9 -16 -22 -25 -29 -14 -11 -19 -11 -33 5 -16 17 -16 17 11 13 29 -6 34 1 16
19 -8 8 -4 11 14 10 20 -2 23 -5 17 -18z m875 11 c3 -5 1 -10 -4 -10 -6 0 -11
5 -11 10 0 6 2 10 4 10 3 0 8 -4 11 -10z m84 -111 c13 -11 21 -22 18 -26 -4
-3 -18 6 -31 20 -29 32 -21 35 13 6z m371 11 c0 -5 -5 -10 -11 -10 -5 0 -7 5
-4 10 3 6 8 10 11 10 2 0 4 -4 4 -10z m-600 -62 c0 -4 4 -8 10 -8 16 0 50 -33
44 -42 -3 -5 6 -24 20 -43 14 -18 26 -38 26 -43 0 -6 5 -12 12 -14 7 -3 12
-33 14 -81 1 -42 5 -81 9 -87 3 -5 1 -10 -4 -10 -16 0 -13 -16 5 -34 8 -9 12
-16 7 -16 -17 0 -33 -58 -31 -115 0 -33 -2 -76 -5 -95 l-6 -35 12 35 c19 54
36 80 54 80 9 0 14 3 10 6 -6 6 29 44 41 44 5 0 16 -8 26 -18 21 -24 22 -127
2 -199 -7 -28 -11 -54 -8 -57 3 -3 1 -6 -5 -6 -6 0 -16 -14 -23 -31 -21 -50
-63 -82 -55 -41 2 10 -5 29 -16 43 -17 22 -19 23 -19 4 -1 -20 -1 -20 -15 -1
-10 13 -12 23 -5 30 12 12 13 93 1 100 -5 3 -9 -4 -9 -17 0 -12 -2 -35 -5 -52
-3 -16 -6 -36 -6 -43 -1 -7 -5 -10 -11 -7 -5 3 -10 0 -10 -8 0 -8 -9 -26 -20
-39 -10 -14 -17 -28 -13 -31 3 -4 1 -13 -5 -20 -7 -8 -9 -16 -6 -20 3 -3 -4
-3 -17 0 -19 5 -21 3 -15 -13 4 -10 4 -15 0 -11 -4 4 -14 1 -22 -6 -13 -10
-15 -9 -10 5 4 10 1 19 -8 22 -9 3 -14 -1 -14 -11 0 -15 -15 -10 -15 5 0 4 -4
13 -9 20 -7 12 -11 36 -20 122 -2 19 -7 43 -11 53 -4 9 -3 17 3 17 6 0 13 18
17 41 6 34 3 44 -15 65 -21 21 -21 24 -6 30 10 4 33 -1 52 -10 l34 -16 -14 28
c-8 15 -24 35 -37 46 -17 14 -19 20 -9 26 7 5 22 7 32 5 25 -5 23 1 -13 46
-17 22 -39 39 -50 39 -34 0 -78 29 -85 55 -3 14 1 46 9 72 10 31 14 75 12 131
l-3 84 40 16 c39 17 158 24 158 10z m420 -7 c0 -6 -4 -13 -10 -16 -5 -3 -10 1
-10 9 0 9 5 16 10 16 6 0 10 -4 10 -9z m-1520 -21 c0 -5 -5 -10 -11 -10 -5 0
-7 5 -4 10 3 6 8 10 11 10 2 0 4 -4 4 -10z m157 -40 c21 -16 21 -17 3 -58 -16
-35 -23 -41 -46 -39 -16 1 -35 13 -47 29 -18 25 -19 28 -3 43 9 9 16 22 16 30
0 28 37 26 77 -5z m1263 10 c6 -11 9 -20 7 -20 -2 0 -12 9 -22 20 -10 11 -13
20 -7 20 6 0 16 -9 22 -20z m200 11 c0 -13 -26 -32 -34 -24 -4 4 -11 1 -16 -7
-6 -8 -10 -10 -10 -5 0 15 13 31 30 38 23 8 30 8 30 -2z m-111 -62 c-24 -15
-45 -11 -24 5 11 8 24 12 28 9 5 -3 3 -9 -4 -14z m-29 -99 c0 -5 -2 -10 -4
-10 -3 0 -8 5 -11 10 -3 6 -1 10 4 10 6 0 11 -4 11 -10z m-1493 -152 c-2 -13
-4 -3 -4 22 0 25 2 35 4 23 2 -13 2 -33 0 -45z m1663 41 c0 -5 -4 -9 -10 -9
-5 0 -10 7 -10 16 0 8 5 12 10 9 6 -3 10 -10 10 -16z m-1306 -4 c-4 -8 -8 -15
-10 -15 -2 0 -4 7 -4 15 0 8 4 15 10 15 5 0 7 -7 4 -15z m1180 -40 c3 -8 1
-15 -4 -15 -6 0 -10 7 -10 15 0 8 2 15 4 15 2 0 6 -7 10 -15z m-1164 -34 c0
-11 -3 -11 -14 -1 -8 6 -12 18 -9 27 5 12 7 12 14 1 5 -7 9 -19 9 -27z m-50
-72 c0 -16 -17 -18 -35 -5 -17 13 -17 14 8 14 15 0 27 -4 27 -9z m451 -19 c6
-16 15 -30 19 -30 5 0 15 -13 23 -30 21 -41 31 -90 19 -90 -9 0 -20 -58 -22
-112 -1 -10 -5 -18 -10 -18 -4 0 -7 11 -6 24 4 30 -14 39 -59 30 -32 -6 -33
-5 -39 39 -4 28 -1 70 9 112 25 108 47 132 66 75z m695 -38 c-18 -16 -18 -16
-6 6 6 13 14 21 18 18 3 -4 -2 -14 -12 -24z m85 1 c13 -16 12 -17 -3 -4 -17
13 -22 21 -14 21 2 0 10 -8 17 -17z m83 -19 c3 -9 6 -23 6 -31 0 -14 -3 -13
-22 3 -19 16 -21 16 -9 1 13 -16 11 -17 -17 -15 -31 2 -31 7 -3 39 20 22 37
23 45 3z m-104 -28 c0 -3 -4 -8 -10 -11 -5 -3 -10 -1 -10 4 0 6 5 11 10 11 6
0 10 -2 10 -4z m16 -27 c47 0 84 -4 84 -9 0 -6 -7 -10 -15 -10 -9 0 -20 -11
-25 -24 -12 -33 -51 -38 -83 -10 -15 13 -27 28 -27 34 0 5 -4 10 -10 10 -5 0
-10 -14 -10 -30 0 -27 -2 -30 -19 -20 -17 8 -18 14 -8 39 6 16 15 27 20 24 5
-3 47 -5 93 -4z m-142 -98 c4 -5 -3 -7 -14 -4 -23 6 -26 13 -6 13 8 0 17 -4
20 -9z m-1090 -9 c2 -4 -4 -8 -15 -8 -10 0 -19 4 -19 8 0 4 6 8 14 8 8 0 17
-4 20 -8z m-139 -12 c-3 -5 -10 -10 -16 -10 -5 0 -9 5 -9 10 0 6 7 10 16 10 8
0 12 -4 9 -10z m1340 -11 c4 -6 5 -12 2 -15 -7 -7 -37 7 -37 17 0 13 27 11 35
-2z m-75 -14 c0 -2 -7 -5 -15 -9 -9 -3 -15 0 -15 9 0 9 6 12 15 9 8 -4 15 -7
15 -9z m175 5 c-4 -6 -1 -18 7 -27 7 -9 -2 -6 -19 7 -18 13 -33 25 -33 27 0 2
12 3 26 3 15 0 23 -4 19 -10z m-865 -10 c8 -5 11 -10 5 -10 -5 0 -17 5 -25 10
-8 5 -10 10 -5 10 6 0 17 -5 25 -10z m796 -12 c4 -6 3 -8 -3 -5 -6 4 -14 -4
-17 -18 -4 -14 -11 -25 -16 -25 -6 0 -4 13 5 30 17 33 21 35 31 18z m74 -58
c0 -5 -7 -7 -15 -4 -8 4 -15 8 -15 10 0 2 7 4 15 4 8 0 15 -4 15 -10z m-401
-102 c0 -57 4 -115 10 -130 12 -32 -1 -133 -22 -175 -15 -28 -90 -103 -104
-103 -3 0 -15 7 -24 16 -14 12 -16 21 -9 35 7 12 7 20 0 24 -7 4 -7 13 0 26 8
13 7 19 0 19 -6 0 -8 5 -3 12 4 7 9 22 10 33 2 11 10 25 18 31 8 6 15 18 15
26 0 9 9 27 20 41 11 14 20 29 19 34 -2 15 13 53 21 53 7 0 18 33 26 80 19
110 24 105 23 -22z m487 63 c-10 -15 -19 -14 -42 5 -18 15 -18 15 9 9 22 -4
27 -3 21 7 -5 10 -4 10 6 1 7 -6 9 -16 6 -22z m59 19 c-3 -5 -11 -10 -16 -10
-6 0 -7 5 -4 10 3 6 11 10 16 10 6 0 7 -4 4 -10z m-289 -9 c-4 -5 0 -11 6 -14
7 -2 10 -7 7 -11 -3 -3 -14 3 -24 14 -17 18 -17 20 -1 20 9 0 15 -4 12 -9z
m48 -6 c3 -8 1 -15 -4 -15 -6 0 -10 7 -10 15 0 8 2 15 4 15 2 0 6 -7 10 -15z
m-166 -12 c5 -18 -23 -16 -39 3 -11 14 -10 15 11 12 13 -1 25 -9 28 -15z m66
1 c9 -8 16 -20 16 -25 0 -6 -7 -3 -16 5 -8 9 -20 16 -25 16 -5 0 -9 5 -9 10 0
15 16 12 34 -6z m-1427 -66 c-3 -8 -6 -5 -6 6 -1 11 2 17 5 13 3 -3 4 -12 1
-19z m333 2 c0 -11 -7 -20 -15 -20 -8 0 -15 9 -15 20 0 11 7 20 15 20 8 0 15
-9 15 -20z m467 -19 c-1 -11 -6 -17 -14 -14 -10 4 -11 9 -2 19 15 19 18 18 16
-5z m913 -16 c0 -8 -2 -15 -4 -15 -2 0 -6 7 -10 15 -3 8 -1 15 4 15 6 0 10 -7
10 -15z m-1713 -82 c-3 -10 -5 -2 -5 17 0 19 2 27 5 18 2 -10 2 -26 0 -35z
m1747 -58 c3 -8 1 -15 -4 -15 -6 0 -10 7 -10 15 0 8 2 15 4 15 2 0 6 -7 10
-15z m-1733 -4 c-10 -6 -10 -10 -1 -16 6 -4 9 -13 6 -20 -3 -8 0 -15 7 -18 6
-2 1 -6 -11 -9 -20 -6 -22 -3 -22 33 0 31 4 39 18 39 13 0 14 -2 3 -9z m156
-27 c-7 -8 -86 -21 -82 -14 3 5 0 10 -7 12 -6 2 12 4 40 4 28 0 50 -1 49 -2z
m1283 -200 c0 -2 -7 -4 -15 -4 -8 0 -15 4 -15 10 0 5 7 7 15 4 8 -4 15 -8 15
-10z m240 -100 c23 -26 22 -25 -17 5 -24 18 -43 35 -43 37 0 10 36 -16 60 -42z"/>
<path d="M1148 1763 c6 -2 18 -2 25 0 6 3 1 5 -13 5 -14 0 -19 -2 -12 -5z"/>
<path d="M1432 981 c-10 -6 -9 -18 3 -52 21 -59 21 -118 0 -158 -17 -33 -14
-54 6 -34 17 17 39 115 39 175 0 45 -4 59 -18 67 -10 5 -24 6 -30 2z"/>
<path d="M1386 925 c-3 -9 -4 -21 0 -26 3 -5 1 -9 -5 -9 -17 0 -23 -43 -11
-75 7 -19 8 -31 0 -39 -13 -13 -13 -36 0 -36 6 0 10 6 10 14 0 8 10 16 23 18
32 4 44 60 24 118 -16 48 -31 60 -41 35z"/>
<path d="M1553 1887 c0 -16 4 -17 72 -21 28 -2 31 -1 8 1 -32 3 -41 8 -36 19
3 10 -2 14 -19 14 -14 0 -25 -6 -25 -13z"/>
<path d="M1500 1870 c-12 -8 -9 -9 12 -8 15 1 24 6 22 10 -7 10 -16 10 -34 -2z"/>
<path d="M1 1784 c0 -11 3 -14 6 -6 3 7 2 16 -1 19 -3 4 -6 -2 -5 -13z"/>
<path d="M1590 130 c0 -29 -9 -61 -25 -87 l-24 -43 97 1 c53 0 91 3 84 6 -6 2
-10 9 -6 14 3 5 -1 9 -8 9 -7 0 -19 13 -26 29 -7 16 -31 49 -52 73 l-39 43 -1
-45z"/>
</g>
</svg>
